PathFileType	4	(X/Y/Z)	/Users/itak/Documents/Research/Walk-IL/dataset/trc/00416_00012.trc
DataRate	CameraRate	NumFrames	NumMarkers	Units	OrigDataRate	OrigDataStartFrame	OrigNumFrames
100.000000	100.000000	4	56	mm	100.000000	520	595
Frame#	Time	RPSI			LPSI			L3			STRN			T10			C7			CLAV			RBAK			LBAK			LSHO			LUPA			LAEL			LAOL			LWTS			LWPS			LFRA			LHPS			RSHO			RUPA			RAEL			RAOL			RWTS			RWPS			RFRA			RIFD			RHTS			RHPS			RBHD			LFHD			RFHD			LBHD			LHIP			RASI			LASI			LKNE			LTHI			LANK			LTIP			LTOE			LMT1			LMT5			LHEE			RKNE			RTHI			RANK			RTIP			RTOE			RMT1			RMT5			RHEE			LIFD			LHTS			RHIP			*53			*54			*55			
		X1	Y1	Z1	X2	Y2	Z2	X3	Y3	Z3	X4	Y4	Z4	X5	Y5	Z5	X6	Y6	Z6	X7	Y7	Z7	X8	Y8	Z8	X9	Y9	Z9	X10	Y10	Z10	X11	Y11	Z11	X12	Y12	Z12	X13	Y13	Z13	X14	Y14	Z14	X15	Y15	Z15	X16	Y16	Z16	X17	Y17	Z17	X18	Y18	Z18	X19	Y19	Z19	X20	Y20	Z20	X21	Y21	Z21	X22	Y22	Z22	X23	Y23	Z23	X24	Y24	Z24	X25	Y25	Z25	X26	Y26	Z26	X27	Y27	Z27	X28	Y28	Z28	X29	Y29	Z29	X30	Y30	Z30	X31	Y31	Z31	X32	Y32	Z32	X33	Y33	Z33	X34	Y34	Z34	X35	Y35	Z35	X36	Y36	Z36	X37	Y37	Z37	X38	Y38	Z38	X39	Y39	Z39	X40	Y40	Z40	X41	Y41	Z41	X42	Y42	Z42	X43	Y43	Z43	X44	Y44	Z44	X45	Y45	Z45	X46	Y46	Z46	X47	Y47	Z47	X48	Y48	Z48	X49	Y49	Z49	X50	Y50	Z50	X51	Y51	Z51	X52	Y52	Z52	X53	Y53	Z53	X54	Y54	Z54	X55	Y55	Z55	X56	Y56	Z56	

521	5.2	164.8948822021484	987.3258056640625	601.6195678710938	295.49560546875	978.071044921875	592.2586059570312	227.0409545898438	1061.495483398438	598.17626953125	232.7761840820312	1209.061889648438	837.2803344726562	231.0430755615234	1165.346557617188	587.803955078125	243.3110809326172	1413.761596679688	634.6268920898438	235.9809265136719	1328.436157226562	786.0574340820312	171.8246307373047	1270.569458007812	582.770263671875	345.0496826171875	1376.640747070312	619.5687866210938	393.9103698730469	1388.488647460938	707.6149291992188	464.5736999511719	1273.582153320312	680.53857421875	492.0385437011719	1076.847045898438	689.8474731445312	431.4021911621094	1056.498168945312	632.6542358398438	456.7525024414062	861.1372680664062	778.9342651367188	513.7039184570312	847.3394775390625	721.3688354492188	502.9510192871094	972.186767578125	701.7399291992188	506.3714294433594	762.03662109375	735.498291015625	84.71353912353516	1391.727905273438	689.5387573242188	24.95973014831543	1328.29541015625	673.6866455078125	-29.32522010803223	1068.456420898438	679.7221069335938	62.14892959594727	1052.798706054688	657.5362548828125	-5.819711685180664	863.9677124023438	825.15234375	-68.20942687988281	851.9028930664062	785.8058471679688	-47.65626525878906	1005.668579101562	710.0632934570312	-22.98359489440918	691.2173461914062	847.0338745117188	-30.01162338256836	763.0313110351562	854.1592407226562	-70.78692626953125	765.6553344726562	800.0518188476562	150.9127807617188	1600.369750976562	719.828857421875	321.3092956542969	1588.183349609375	818.492431640625	201.9692230224609	1593.55078125	843.1458740234375	303.1068725585938	1592.919555664062	670.7421264648438	410.2482604980469	965.718505859375	677.6075439453125	112.4819488525391	970.7566528320312	821.1781616210938	374.6632080078125	963.84033203125	793.7597045898438	388.7393493652344	473.2369079589844	722.1660766601562	401.37841796875	615.764404296875	715.3174438476562	351.7952880859375	41.03116607666016	624.6060180664062	382.3234252929688	241.688232421875	674.7149047851562	280.8923034667969	41.5312614440918	838.4003295898438	253.396728515625	42.68769454956055	756.0447387695312	358.1958618164062	39.08052825927734	751.638916015625	296.4548645019531	36.93986511230469	584.7504272460938	79.86808776855469	472.6680297851562	711.5264892578125	54.33169937133789	738.7916259765625	780.3515625	119.2326354980469	52.17130279541016	659.5359497070312	94.52804565429688	347.3242492675781	717.3390502929688	171.6946258544922	40.61099243164062	842.6044311523438	207.6874084472656	43.86484146118164	769.3616333007812	108.5490112304688	44.86843872070312	744.542724609375	176.34033203125	38.82524490356445	590.2398071289062	465.0478515625	681.1973266601562	777.4752807617188	477.9267578125	764.2012329101562	792.65771484375	52.81890869140625	962.8151245117188	688.0171508789062	nan	nan	nan	nan	nan	nan	nan	nan	nan	
522	5.21	164.6081848144531	987.410400390625	602.1254272460938	295.1274719238281	978.1222534179688	592.4186401367188	226.7582244873047	1061.38623046875	598.5386962890625	232.800048828125	1209.039306640625	837.4826049804688	230.6752014160156	1165.298706054688	588.2435913085938	243.1424407958984	1413.770751953125	634.81787109375	236.0732269287109	1328.392456054688	786.2685546875	171.6441040039062	1270.497802734375	583.142333984375	344.8557739257812	1376.599609375	619.560546875	393.8262634277344	1388.401489257812	707.5471801757812	464.3717651367188	1273.455322265625	680.4054565429688	491.8652038574219	1076.667846679688	690.0567626953125	431.2687683105469	1056.321044921875	632.7788696289062	456.2271423339844	861.53369140625	780.1770629882812	513.4613037109375	847.49365234375	722.966796875	502.655517578125	972.0905151367188	702.4324951171875	506.2541198730469	762.2841186523438	737.5609741210938	84.57923126220703	1391.649658203125	689.9413452148438	24.87967300415039	1328.228637695312	674.1529541015625	-29.2178897857666	1068.302490234375	679.9910278320312	62.20921325683594	1052.7841796875	657.6856079101562	-5.435218334197998	863.4512939453125	824.8810424804688	-67.88520050048828	851.5014038085938	785.559814453125	-47.51919937133789	1005.473937988281	710.1937255859375	-22.36555290222168	690.6126708984375	846.2157592773438	-29.55732727050781	762.3829956054688	853.5619506835938	-70.45609283447266	765.20751953125	799.4760131835938	150.8181762695312	1600.336669921875	720.7437133789062	321.7637329101562	1587.942626953125	818.4221801757812	202.5498352050781	1593.331909179688	843.7538452148438	302.7206115722656	1593.000366210938	670.7899169921875	410.2018737792969	965.7577514648438	677.4497680664062	112.7953109741211	970.7069702148438	821.7933349609375	374.8577880859375	963.8151245117188	793.7316284179688	388.8507690429688	473.2670288085938	721.9622802734375	401.485107421875	615.777587890625	715.1107177734375	351.7932434082031	41.01901245117188	624.6019287109375	382.3822021484375	241.7044525146484	674.5885009765625	280.898193359375	41.53516006469727	838.3997802734375	253.4066467285156	42.69772338867188	756.0435180664062	358.2182922363281	39.08150863647461	751.6461791992188	296.4469604492188	36.94040679931641	584.7508544921875	79.78136444091797	472.6629333496094	711.6102294921875	54.10329055786133	738.7095947265625	780.59765625	119.182373046875	52.18052673339844	659.5319213867188	94.50578308105469	347.3085327148438	717.415283203125	171.6876220703125	40.59772109985352	842.607666015625	207.6825866699219	43.86882781982422	769.3612060546875	108.5422668457031	44.86127471923828	744.5498046875	176.3269195556641	38.8409423828125	590.2352905273438	464.8594360351562	681.5992431640625	779.7412109375	477.4996337890625	764.7010498046875	794.5405883789062	52.56215667724609	962.823974609375	688.6766357421875	nan	nan	nan	nan	nan	nan	nan	nan	nan	
523	5.22	164.3347473144531	987.4934692382812	602.6266479492188	294.7905883789062	978.1708984375	592.5725708007812	226.4824066162109	1061.262329101562	598.904541015625	232.8646850585938	1209.01953125	837.678955078125	230.3324432373047	1165.243286132812	588.6221923828125	242.9795837402344	1413.773193359375	635.0086059570312	236.1623992919922	1328.347778320312	786.467529296875	171.47998046875	1270.413818359375	583.4999389648438	344.6786804199219	1376.551635742188	619.5355224609375	393.7440490722656	1388.323608398438	707.4421997070312	464.1939697265625	1273.33642578125	680.2264404296875	491.6795959472656	1076.469970703125	690.2225952148438	431.1377258300781	1056.154052734375	632.86083984375	455.6177978515625	861.9788208007812	781.4434814453125	513.162109375	847.6566772460938	724.6435546875	502.375244140625	971.9992065429688	703.138916015625	506.0663452148438	762.5599975585938	739.7257080078125	84.45572662353516	1391.5625	690.3244018554688	24.81598281860352	1328.146606445312	674.611083984375	-29.07205390930176	1068.14599609375	680.2316284179688	62.3128662109375	1052.749389648438	657.8331298828125	-5.070098876953125	862.9146118164062	824.5943603515625	-67.55857086181641	851.0731201171875	785.255859375	-47.32993316650391	1005.268920898438	710.2896728515625	-21.78864097595215	689.9905395507812	845.3646240234375	-29.1482105255127	761.7227783203125	852.9222412109375	-70.15401458740234	764.7474365234375	798.8396606445312	150.7738037109375	1600.320556640625	721.6295776367188	322.1767883300781	1587.71826171875	818.3556518554688	203.0968780517578	1593.101806640625	844.3274536132812	302.3639831542969	1593.082641601562	670.8477783203125	410.2632141113281	965.8927001953125	677.1405029296875	113.113883972168	970.6683349609375	822.4170532226562	375.0724182128906	963.788818359375	793.7083740234375	388.9509887695312	473.2934875488281	721.79736328125	401.6650390625	615.7924194335938	714.9340209960938	351.7885131835938	41.00882339477539	624.5977783203125	382.4266967773438	241.7181549072266	674.4852294921875	280.9027404785156	41.53666687011719	838.4000244140625	253.4156036376953	42.70684051513672	756.0431518554688	358.2432250976562	39.08465194702148	751.6514892578125	296.4366149902344	36.94147491455078	584.7485961914062	79.69976043701172	472.66064453125	711.6893310546875	53.89135360717773	738.631591796875	780.8366088867188	119.1276931762695	52.18993377685547	659.5254516601562	94.48524475097656	347.296630859375	717.4764404296875	171.6825103759766	40.58606719970703	842.6083984375	207.6762542724609	43.87553405761719	769.3596801757812	108.5354156494141	44.85365295410156	744.5550537109375	176.3088226318359	38.85504150390625	590.2304077148438	464.3014831542969	681.9888916015625	782.117919921875	476.9683532714844	765.2559204101562	796.4994506835938	52.32187652587891	962.8367919921875	689.3289794921875	nan	nan	nan	nan	nan	nan	nan	nan	nan	
524	5.23	164.0828552246094	987.5731811523438	603.1157836914062	294.4896850585938	978.2160034179688	592.72216796875	226.2159423828125	1061.128051757812	599.2654418945312	232.9748840332031	1209.001098632812	837.867919921875	230.018798828125	1165.18359375	588.9287109375	242.8151702880859	1413.763549804688	635.1989135742188	236.2550048828125	1328.3037109375	786.6553955078125	171.3237609863281	1270.31884765625	583.8406982421875	344.5129699707031	1376.497192382812	619.494873046875	393.6606140136719	1388.25732421875	707.2960205078125	464.0453796386719	1273.227661132812	680.001220703125	491.4869689941406	1076.261474609375	690.3397216796875	431.0055847167969	1056.003173828125	632.897705078125	454.9332885742188	862.4735717773438	782.7257080078125	512.803466796875	847.8268432617188	726.3717651367188	502.1090698242188	971.9151000976562	703.8469848632812	505.7919616699219	762.8624877929688	741.9718627929688	84.34572601318359	1391.467895507812	690.696044921875	24.76314926147461	1328.0478515625	675.0645141601562	-28.89570045471191	1067.991821289062	680.4493408203125	62.4581184387207	1052.695434570312	657.9843139648438	-4.726959705352783	862.3569946289062	824.2999267578125	-67.24183654785156	850.618896484375	784.8967895507812	-47.09100723266602	1005.053405761719	710.3635864257812	-21.26608467102051	689.3523559570312	844.4795532226562	-28.77360153198242	761.05322265625	852.2469482421875	-69.86871337890625	764.2702026367188	798.160400390625	150.7597503662109	1600.317016601562	722.4749145507812	322.54736328125	1587.517211914062	818.2903442382812	203.6058654785156	1592.860595703125	844.8648681640625	302.039306640625	1593.166625976562	670.9119873046875	410.396728515625	966.0919189453125	676.7398071289062	113.4222030639648	970.6408081054688	823.0296630859375	375.3086547851562	963.7642211914062	793.6939086914062	389.0372619628906	473.3140563964844	721.6703491210938	401.9137573242188	615.8091430664062	714.7884521484375	351.7825622558594	41.00110626220703	624.593994140625	382.4598083496094	241.7290191650391	674.4058227539062	280.906005859375	41.53662872314453	838.4007568359375	253.4220123291016	42.71389770507812	756.0435791015625	358.2700500488281	39.08988952636719	751.6555786132812	296.4252014160156	36.94387435913086	584.7437744140625	79.62983703613281	472.6597290039062	711.7725830078125	53.72435760498047	738.5531616210938	781.0647583007812	119.0815811157227	52.19509124755859	659.5205688476562	94.46759796142578	347.2883605957031	717.5283813476562	171.6805419921875	40.57582092285156	842.6083984375	207.6691589355469	43.88272857666016	769.3579711914062	108.5302810668945	44.84616470336914	744.55859375	176.2865905761719	38.86760711669922	590.224853515625	463.4275512695312	682.3873291015625	784.6063232421875	476.3422241210938	765.8709716796875	798.5262451171875	52.12652969360352	962.8492431640625	689.9705810546875	nan	nan	nan	nan	nan	nan	nan	nan	nan	
